M48
; DRILL file {KiCad 9.0.7} date 2026-04-28T11:38:43-0400
; FORMAT={-:-/ absolute / metric / decimal}
; #@! TF.CreationDate,2026-04-28T11:38:43-04:00
; #@! TF.GenerationSoftware,Kicad,Pcbnew,9.0.7
; #@! TF.FileFunction,Plated,1,2,PTH
FMAT,2
METRIC
; #@! TA.AperFunction,Plated,PTH,ViaDrill
T1C0.700
; #@! TA.AperFunction,Plated,PTH,ComponentDrill
T2C0.800
; #@! TA.AperFunction,Plated,PTH,ComponentDrill
T3C1.000
; #@! TA.AperFunction,Plated,PTH,ComponentDrill
T4C1.500
%
G90
G05
T1
X219.71Y-55.91
X222.25Y-104.14
X223.52Y-107.95
X232.38Y-111.775
X243.84Y-55.88
X246.38Y-68.58
X250.19Y-54.61
X254.0Y-52.07
X255.27Y-123.19
T2
X215.9Y-114.3
X215.9Y-129.54
X218.44Y-114.3
X218.44Y-129.54
X220.98Y-114.3
X220.98Y-129.54
X223.52Y-114.3
X223.52Y-129.54
X226.06Y-114.3
X226.06Y-129.54
X228.6Y-114.3
X228.6Y-129.54
X231.14Y-114.3
X231.14Y-129.54
X233.68Y-114.3
X233.68Y-129.54
X236.22Y-114.3
X236.22Y-129.54
X238.76Y-114.3
X238.76Y-129.54
X241.3Y-114.3
X241.3Y-129.54
X243.84Y-114.3
X243.84Y-129.54
X246.38Y-114.3
X246.38Y-129.54
X248.92Y-114.3
X248.92Y-129.54
X250.19Y-58.42
X250.19Y-60.96
X250.19Y-63.5
X250.19Y-66.04
X250.19Y-68.58
X250.19Y-71.12
X250.19Y-73.66
X250.19Y-76.2
X250.19Y-78.74
X250.19Y-81.28
X250.19Y-83.82
X250.19Y-86.36
X250.19Y-88.9
X250.19Y-91.44
X250.19Y-93.98
X250.19Y-96.52
X250.19Y-99.06
X250.19Y-101.6
X250.19Y-104.14
X250.19Y-106.68
X251.46Y-114.3
X251.46Y-129.54
X254.0Y-114.3
X254.0Y-129.54
X256.54Y-114.3
X256.54Y-129.54
X259.08Y-114.3
X259.08Y-129.54
X261.62Y-114.3
X261.62Y-129.54
X264.16Y-114.3
X264.16Y-129.54
X265.43Y-58.42
X265.43Y-60.96
X265.43Y-63.5
X265.43Y-66.04
X265.43Y-68.58
X265.43Y-71.12
X265.43Y-73.66
X265.43Y-76.2
X265.43Y-78.74
X265.43Y-81.28
X265.43Y-83.82
X265.43Y-86.36
X265.43Y-88.9
X265.43Y-91.44
X265.43Y-93.98
X265.43Y-96.52
X265.43Y-99.06
X265.43Y-101.6
X265.43Y-104.14
X265.43Y-106.68
T4
X184.15Y-58.42
X184.15Y-60.96
X184.15Y-63.5
X184.15Y-66.04
X184.15Y-68.58
X184.15Y-71.12
X184.15Y-73.66
X184.15Y-76.2
X184.15Y-78.74
X184.15Y-81.28
X184.15Y-83.82
X184.15Y-86.36
X184.15Y-88.9
X184.15Y-91.44
X184.15Y-93.98
X184.15Y-96.52
X184.15Y-99.06
X184.15Y-101.6
X184.15Y-104.14
X184.15Y-106.68
X184.15Y-109.22
X184.15Y-111.76
X184.15Y-114.3
X184.15Y-116.84
X184.15Y-119.38
X184.15Y-121.92
X184.15Y-124.46
X184.15Y-127.0
X184.15Y-129.54
X184.15Y-132.08
X186.715Y-39.345
X189.255Y-39.345
X191.795Y-39.345
X194.335Y-39.345
X196.875Y-39.345
X199.415Y-39.345
X201.93Y-58.42
X201.93Y-60.96
X201.93Y-63.5
X201.93Y-66.04
X201.93Y-68.58
X201.93Y-71.12
X201.93Y-73.66
X201.93Y-76.2
X201.93Y-78.74
X201.93Y-81.28
X201.93Y-83.82
X201.93Y-86.36
X201.93Y-88.9
X201.93Y-91.44
X201.93Y-93.98
X201.93Y-96.52
X201.93Y-99.06
X201.93Y-101.6
X201.93Y-104.14
X201.93Y-106.68
X201.93Y-109.22
X201.93Y-111.76
X201.93Y-114.3
X201.93Y-116.84
X201.93Y-119.38
X201.93Y-121.92
X201.93Y-124.46
X201.93Y-127.0
X201.93Y-129.54
X201.93Y-132.08
X214.63Y-64.77
X214.63Y-80.01
X214.63Y-85.09
X214.63Y-100.33
X217.17Y-64.77
X217.17Y-80.01
X217.17Y-85.09
X217.17Y-100.33
X219.71Y-64.77
X219.71Y-80.01
X219.71Y-85.09
X219.71Y-100.33
X222.25Y-64.77
X222.25Y-80.01
X222.25Y-85.09
X222.25Y-100.33
X224.79Y-64.77
X224.79Y-80.01
X224.79Y-85.09
X224.79Y-100.33
X227.33Y-46.99
X227.33Y-64.77
X227.33Y-80.01
X227.33Y-85.09
X227.33Y-100.33
X228.6Y-134.62
X229.87Y-46.99
X229.87Y-64.77
X229.87Y-80.01
X229.87Y-85.09
X229.87Y-100.33
X231.14Y-134.62
X232.41Y-46.99
X232.41Y-64.77
X232.41Y-80.01
X232.41Y-85.09
X232.41Y-100.33
X234.95Y-46.99
X234.95Y-64.77
X234.95Y-80.01
X234.95Y-85.09
X234.95Y-100.33
X237.49Y-46.99
X237.49Y-64.77
X237.49Y-80.01
X237.49Y-85.09
X237.49Y-100.33
X240.03Y-46.99
X240.03Y-64.77
X240.03Y-80.01
X240.03Y-85.09
X240.03Y-100.33
X241.3Y-134.62
X242.57Y-64.77
X242.57Y-80.01
X242.57Y-85.09
X242.57Y-100.33
X243.84Y-134.62
X247.65Y-39.37
X250.19Y-39.37
X250.19Y-134.62
X252.73Y-39.37
X252.73Y-134.62
X255.27Y-39.37
X257.81Y-39.37
X259.08Y-134.62
X260.35Y-39.37
X261.62Y-134.62
X266.7Y-41.91
X266.7Y-44.45
T3
G00X212.67Y-40.85
M15
G01X212.67Y-39.35
M16
G05
G00X217.82Y-41.1
M15
G01X216.52Y-41.1
M16
G05
G00X218.17Y-47.1
M15
G01X216.17Y-47.1
M16
G05
G00X221.67Y-40.85
M15
G01X221.67Y-39.35
M16
G05
M30
