%TF.GenerationSoftware,KiCad,Pcbnew,9.0.7*%
%TF.CreationDate,2026-04-28T11:36:47-04:00*%
%TF.ProjectId,SignleCellBoard,5369676e-6c65-4436-956c-6c426f617264,rev?*%
%TF.SameCoordinates,Original*%
%TF.FileFunction,Legend,Bot*%
%TF.FilePolarity,Positive*%
%FSLAX46Y46*%
G04 Gerber Fmt 4.6, Leading zero omitted, Abs format (unit mm)*
G04 Created by KiCad (PCBNEW 9.0.7) date 2026-04-28 11:36:47*
%MOMM*%
%LPD*%
G01*
G04 APERTURE LIST*
%ADD10C,0.150000*%
%ADD11C,0.120000*%
G04 APERTURE END LIST*
D10*
X264074819Y-86891905D02*
X263074819Y-86891905D01*
X263074819Y-86891905D02*
X263074819Y-87130000D01*
X263074819Y-87130000D02*
X263122438Y-87272857D01*
X263122438Y-87272857D02*
X263217676Y-87368095D01*
X263217676Y-87368095D02*
X263312914Y-87415714D01*
X263312914Y-87415714D02*
X263503390Y-87463333D01*
X263503390Y-87463333D02*
X263646247Y-87463333D01*
X263646247Y-87463333D02*
X263836723Y-87415714D01*
X263836723Y-87415714D02*
X263931961Y-87368095D01*
X263931961Y-87368095D02*
X264027200Y-87272857D01*
X264027200Y-87272857D02*
X264074819Y-87130000D01*
X264074819Y-87130000D02*
X264074819Y-86891905D01*
X264074819Y-88415714D02*
X264074819Y-87844286D01*
X264074819Y-88130000D02*
X263074819Y-88130000D01*
X263074819Y-88130000D02*
X263217676Y-88034762D01*
X263217676Y-88034762D02*
X263312914Y-87939524D01*
X263312914Y-87939524D02*
X263360533Y-87844286D01*
X260549580Y-77234642D02*
X260597200Y-77187023D01*
X260597200Y-77187023D02*
X260644819Y-77044166D01*
X260644819Y-77044166D02*
X260644819Y-76948928D01*
X260644819Y-76948928D02*
X260597200Y-76806071D01*
X260597200Y-76806071D02*
X260501961Y-76710833D01*
X260501961Y-76710833D02*
X260406723Y-76663214D01*
X260406723Y-76663214D02*
X260216247Y-76615595D01*
X260216247Y-76615595D02*
X260073390Y-76615595D01*
X260073390Y-76615595D02*
X259882914Y-76663214D01*
X259882914Y-76663214D02*
X259787676Y-76710833D01*
X259787676Y-76710833D02*
X259692438Y-76806071D01*
X259692438Y-76806071D02*
X259644819Y-76948928D01*
X259644819Y-76948928D02*
X259644819Y-77044166D01*
X259644819Y-77044166D02*
X259692438Y-77187023D01*
X259692438Y-77187023D02*
X259740057Y-77234642D01*
X259740057Y-77615595D02*
X259692438Y-77663214D01*
X259692438Y-77663214D02*
X259644819Y-77758452D01*
X259644819Y-77758452D02*
X259644819Y-77996547D01*
X259644819Y-77996547D02*
X259692438Y-78091785D01*
X259692438Y-78091785D02*
X259740057Y-78139404D01*
X259740057Y-78139404D02*
X259835295Y-78187023D01*
X259835295Y-78187023D02*
X259930533Y-78187023D01*
X259930533Y-78187023D02*
X260073390Y-78139404D01*
X260073390Y-78139404D02*
X260644819Y-77567976D01*
X260644819Y-77567976D02*
X260644819Y-78187023D01*
X259740057Y-78567976D02*
X259692438Y-78615595D01*
X259692438Y-78615595D02*
X259644819Y-78710833D01*
X259644819Y-78710833D02*
X259644819Y-78948928D01*
X259644819Y-78948928D02*
X259692438Y-79044166D01*
X259692438Y-79044166D02*
X259740057Y-79091785D01*
X259740057Y-79091785D02*
X259835295Y-79139404D01*
X259835295Y-79139404D02*
X259930533Y-79139404D01*
X259930533Y-79139404D02*
X260073390Y-79091785D01*
X260073390Y-79091785D02*
X260644819Y-78520357D01*
X260644819Y-78520357D02*
X260644819Y-79139404D01*
X263409580Y-81907142D02*
X263457200Y-81859523D01*
X263457200Y-81859523D02*
X263504819Y-81716666D01*
X263504819Y-81716666D02*
X263504819Y-81621428D01*
X263504819Y-81621428D02*
X263457200Y-81478571D01*
X263457200Y-81478571D02*
X263361961Y-81383333D01*
X263361961Y-81383333D02*
X263266723Y-81335714D01*
X263266723Y-81335714D02*
X263076247Y-81288095D01*
X263076247Y-81288095D02*
X262933390Y-81288095D01*
X262933390Y-81288095D02*
X262742914Y-81335714D01*
X262742914Y-81335714D02*
X262647676Y-81383333D01*
X262647676Y-81383333D02*
X262552438Y-81478571D01*
X262552438Y-81478571D02*
X262504819Y-81621428D01*
X262504819Y-81621428D02*
X262504819Y-81716666D01*
X262504819Y-81716666D02*
X262552438Y-81859523D01*
X262552438Y-81859523D02*
X262600057Y-81907142D01*
X263504819Y-82859523D02*
X263504819Y-82288095D01*
X263504819Y-82573809D02*
X262504819Y-82573809D01*
X262504819Y-82573809D02*
X262647676Y-82478571D01*
X262647676Y-82478571D02*
X262742914Y-82383333D01*
X262742914Y-82383333D02*
X262790533Y-82288095D01*
X263504819Y-83335714D02*
X263504819Y-83526190D01*
X263504819Y-83526190D02*
X263457200Y-83621428D01*
X263457200Y-83621428D02*
X263409580Y-83669047D01*
X263409580Y-83669047D02*
X263266723Y-83764285D01*
X263266723Y-83764285D02*
X263076247Y-83811904D01*
X263076247Y-83811904D02*
X262695295Y-83811904D01*
X262695295Y-83811904D02*
X262600057Y-83764285D01*
X262600057Y-83764285D02*
X262552438Y-83716666D01*
X262552438Y-83716666D02*
X262504819Y-83621428D01*
X262504819Y-83621428D02*
X262504819Y-83430952D01*
X262504819Y-83430952D02*
X262552438Y-83335714D01*
X262552438Y-83335714D02*
X262600057Y-83288095D01*
X262600057Y-83288095D02*
X262695295Y-83240476D01*
X262695295Y-83240476D02*
X262933390Y-83240476D01*
X262933390Y-83240476D02*
X263028628Y-83288095D01*
X263028628Y-83288095D02*
X263076247Y-83335714D01*
X263076247Y-83335714D02*
X263123866Y-83430952D01*
X263123866Y-83430952D02*
X263123866Y-83621428D01*
X263123866Y-83621428D02*
X263076247Y-83716666D01*
X263076247Y-83716666D02*
X263028628Y-83764285D01*
X263028628Y-83764285D02*
X262933390Y-83811904D01*
X230036666Y-51254819D02*
X230369999Y-50778628D01*
X230608094Y-51254819D02*
X230608094Y-50254819D01*
X230608094Y-50254819D02*
X230227142Y-50254819D01*
X230227142Y-50254819D02*
X230131904Y-50302438D01*
X230131904Y-50302438D02*
X230084285Y-50350057D01*
X230084285Y-50350057D02*
X230036666Y-50445295D01*
X230036666Y-50445295D02*
X230036666Y-50588152D01*
X230036666Y-50588152D02*
X230084285Y-50683390D01*
X230084285Y-50683390D02*
X230131904Y-50731009D01*
X230131904Y-50731009D02*
X230227142Y-50778628D01*
X230227142Y-50778628D02*
X230608094Y-50778628D01*
X229179523Y-50254819D02*
X229369999Y-50254819D01*
X229369999Y-50254819D02*
X229465237Y-50302438D01*
X229465237Y-50302438D02*
X229512856Y-50350057D01*
X229512856Y-50350057D02*
X229608094Y-50492914D01*
X229608094Y-50492914D02*
X229655713Y-50683390D01*
X229655713Y-50683390D02*
X229655713Y-51064342D01*
X229655713Y-51064342D02*
X229608094Y-51159580D01*
X229608094Y-51159580D02*
X229560475Y-51207200D01*
X229560475Y-51207200D02*
X229465237Y-51254819D01*
X229465237Y-51254819D02*
X229274761Y-51254819D01*
X229274761Y-51254819D02*
X229179523Y-51207200D01*
X229179523Y-51207200D02*
X229131904Y-51159580D01*
X229131904Y-51159580D02*
X229084285Y-51064342D01*
X229084285Y-51064342D02*
X229084285Y-50826247D01*
X229084285Y-50826247D02*
X229131904Y-50731009D01*
X229131904Y-50731009D02*
X229179523Y-50683390D01*
X229179523Y-50683390D02*
X229274761Y-50635771D01*
X229274761Y-50635771D02*
X229465237Y-50635771D01*
X229465237Y-50635771D02*
X229560475Y-50683390D01*
X229560475Y-50683390D02*
X229608094Y-50731009D01*
X229608094Y-50731009D02*
X229655713Y-50826247D01*
X250158094Y-125409819D02*
X250158094Y-126219342D01*
X250158094Y-126219342D02*
X250110475Y-126314580D01*
X250110475Y-126314580D02*
X250062856Y-126362200D01*
X250062856Y-126362200D02*
X249967618Y-126409819D01*
X249967618Y-126409819D02*
X249777142Y-126409819D01*
X249777142Y-126409819D02*
X249681904Y-126362200D01*
X249681904Y-126362200D02*
X249634285Y-126314580D01*
X249634285Y-126314580D02*
X249586666Y-126219342D01*
X249586666Y-126219342D02*
X249586666Y-125409819D01*
X248586666Y-126409819D02*
X249158094Y-126409819D01*
X248872380Y-126409819D02*
X248872380Y-125409819D01*
X248872380Y-125409819D02*
X248967618Y-125552676D01*
X248967618Y-125552676D02*
X249062856Y-125647914D01*
X249062856Y-125647914D02*
X249158094Y-125695533D01*
X247967618Y-125409819D02*
X247872380Y-125409819D01*
X247872380Y-125409819D02*
X247777142Y-125457438D01*
X247777142Y-125457438D02*
X247729523Y-125505057D01*
X247729523Y-125505057D02*
X247681904Y-125600295D01*
X247681904Y-125600295D02*
X247634285Y-125790771D01*
X247634285Y-125790771D02*
X247634285Y-126028866D01*
X247634285Y-126028866D02*
X247681904Y-126219342D01*
X247681904Y-126219342D02*
X247729523Y-126314580D01*
X247729523Y-126314580D02*
X247777142Y-126362200D01*
X247777142Y-126362200D02*
X247872380Y-126409819D01*
X247872380Y-126409819D02*
X247967618Y-126409819D01*
X247967618Y-126409819D02*
X248062856Y-126362200D01*
X248062856Y-126362200D02*
X248110475Y-126314580D01*
X248110475Y-126314580D02*
X248158094Y-126219342D01*
X248158094Y-126219342D02*
X248205713Y-126028866D01*
X248205713Y-126028866D02*
X248205713Y-125790771D01*
X248205713Y-125790771D02*
X248158094Y-125600295D01*
X248158094Y-125600295D02*
X248110475Y-125505057D01*
X248110475Y-125505057D02*
X248062856Y-125457438D01*
X248062856Y-125457438D02*
X247967618Y-125409819D01*
X234441904Y-118609819D02*
X234441904Y-119419342D01*
X234441904Y-119419342D02*
X234394285Y-119514580D01*
X234394285Y-119514580D02*
X234346666Y-119562200D01*
X234346666Y-119562200D02*
X234251428Y-119609819D01*
X234251428Y-119609819D02*
X234060952Y-119609819D01*
X234060952Y-119609819D02*
X233965714Y-119562200D01*
X233965714Y-119562200D02*
X233918095Y-119514580D01*
X233918095Y-119514580D02*
X233870476Y-119419342D01*
X233870476Y-119419342D02*
X233870476Y-118609819D01*
X233346666Y-119609819D02*
X233156190Y-119609819D01*
X233156190Y-119609819D02*
X233060952Y-119562200D01*
X233060952Y-119562200D02*
X233013333Y-119514580D01*
X233013333Y-119514580D02*
X232918095Y-119371723D01*
X232918095Y-119371723D02*
X232870476Y-119181247D01*
X232870476Y-119181247D02*
X232870476Y-118800295D01*
X232870476Y-118800295D02*
X232918095Y-118705057D01*
X232918095Y-118705057D02*
X232965714Y-118657438D01*
X232965714Y-118657438D02*
X233060952Y-118609819D01*
X233060952Y-118609819D02*
X233251428Y-118609819D01*
X233251428Y-118609819D02*
X233346666Y-118657438D01*
X233346666Y-118657438D02*
X233394285Y-118705057D01*
X233394285Y-118705057D02*
X233441904Y-118800295D01*
X233441904Y-118800295D02*
X233441904Y-119038390D01*
X233441904Y-119038390D02*
X233394285Y-119133628D01*
X233394285Y-119133628D02*
X233346666Y-119181247D01*
X233346666Y-119181247D02*
X233251428Y-119228866D01*
X233251428Y-119228866D02*
X233060952Y-119228866D01*
X233060952Y-119228866D02*
X232965714Y-119181247D01*
X232965714Y-119181247D02*
X232918095Y-119133628D01*
X232918095Y-119133628D02*
X232870476Y-119038390D01*
X260549580Y-92067142D02*
X260597200Y-92019523D01*
X260597200Y-92019523D02*
X260644819Y-91876666D01*
X260644819Y-91876666D02*
X260644819Y-91781428D01*
X260644819Y-91781428D02*
X260597200Y-91638571D01*
X260597200Y-91638571D02*
X260501961Y-91543333D01*
X260501961Y-91543333D02*
X260406723Y-91495714D01*
X260406723Y-91495714D02*
X260216247Y-91448095D01*
X260216247Y-91448095D02*
X260073390Y-91448095D01*
X260073390Y-91448095D02*
X259882914Y-91495714D01*
X259882914Y-91495714D02*
X259787676Y-91543333D01*
X259787676Y-91543333D02*
X259692438Y-91638571D01*
X259692438Y-91638571D02*
X259644819Y-91781428D01*
X259644819Y-91781428D02*
X259644819Y-91876666D01*
X259644819Y-91876666D02*
X259692438Y-92019523D01*
X259692438Y-92019523D02*
X259740057Y-92067142D01*
X259740057Y-92448095D02*
X259692438Y-92495714D01*
X259692438Y-92495714D02*
X259644819Y-92590952D01*
X259644819Y-92590952D02*
X259644819Y-92829047D01*
X259644819Y-92829047D02*
X259692438Y-92924285D01*
X259692438Y-92924285D02*
X259740057Y-92971904D01*
X259740057Y-92971904D02*
X259835295Y-93019523D01*
X259835295Y-93019523D02*
X259930533Y-93019523D01*
X259930533Y-93019523D02*
X260073390Y-92971904D01*
X260073390Y-92971904D02*
X260644819Y-92400476D01*
X260644819Y-92400476D02*
X260644819Y-93019523D01*
X260644819Y-93971904D02*
X260644819Y-93400476D01*
X260644819Y-93686190D02*
X259644819Y-93686190D01*
X259644819Y-93686190D02*
X259787676Y-93590952D01*
X259787676Y-93590952D02*
X259882914Y-93495714D01*
X259882914Y-93495714D02*
X259930533Y-93400476D01*
X248679166Y-44969580D02*
X248726785Y-45017200D01*
X248726785Y-45017200D02*
X248869642Y-45064819D01*
X248869642Y-45064819D02*
X248964880Y-45064819D01*
X248964880Y-45064819D02*
X249107737Y-45017200D01*
X249107737Y-45017200D02*
X249202975Y-44921961D01*
X249202975Y-44921961D02*
X249250594Y-44826723D01*
X249250594Y-44826723D02*
X249298213Y-44636247D01*
X249298213Y-44636247D02*
X249298213Y-44493390D01*
X249298213Y-44493390D02*
X249250594Y-44302914D01*
X249250594Y-44302914D02*
X249202975Y-44207676D01*
X249202975Y-44207676D02*
X249107737Y-44112438D01*
X249107737Y-44112438D02*
X248964880Y-44064819D01*
X248964880Y-44064819D02*
X248869642Y-44064819D01*
X248869642Y-44064819D02*
X248726785Y-44112438D01*
X248726785Y-44112438D02*
X248679166Y-44160057D01*
X247726785Y-45064819D02*
X248298213Y-45064819D01*
X248012499Y-45064819D02*
X248012499Y-44064819D01*
X248012499Y-44064819D02*
X248107737Y-44207676D01*
X248107737Y-44207676D02*
X248202975Y-44302914D01*
X248202975Y-44302914D02*
X248298213Y-44350533D01*
X256706666Y-42109580D02*
X256754285Y-42157200D01*
X256754285Y-42157200D02*
X256897142Y-42204819D01*
X256897142Y-42204819D02*
X256992380Y-42204819D01*
X256992380Y-42204819D02*
X257135237Y-42157200D01*
X257135237Y-42157200D02*
X257230475Y-42061961D01*
X257230475Y-42061961D02*
X257278094Y-41966723D01*
X257278094Y-41966723D02*
X257325713Y-41776247D01*
X257325713Y-41776247D02*
X257325713Y-41633390D01*
X257325713Y-41633390D02*
X257278094Y-41442914D01*
X257278094Y-41442914D02*
X257230475Y-41347676D01*
X257230475Y-41347676D02*
X257135237Y-41252438D01*
X257135237Y-41252438D02*
X256992380Y-41204819D01*
X256992380Y-41204819D02*
X256897142Y-41204819D01*
X256897142Y-41204819D02*
X256754285Y-41252438D01*
X256754285Y-41252438D02*
X256706666Y-41300057D01*
X256325713Y-41300057D02*
X256278094Y-41252438D01*
X256278094Y-41252438D02*
X256182856Y-41204819D01*
X256182856Y-41204819D02*
X255944761Y-41204819D01*
X255944761Y-41204819D02*
X255849523Y-41252438D01*
X255849523Y-41252438D02*
X255801904Y-41300057D01*
X255801904Y-41300057D02*
X255754285Y-41395295D01*
X255754285Y-41395295D02*
X255754285Y-41490533D01*
X255754285Y-41490533D02*
X255801904Y-41633390D01*
X255801904Y-41633390D02*
X256373332Y-42204819D01*
X256373332Y-42204819D02*
X255754285Y-42204819D01*
X229475357Y-45219580D02*
X229522976Y-45267200D01*
X229522976Y-45267200D02*
X229665833Y-45314819D01*
X229665833Y-45314819D02*
X229761071Y-45314819D01*
X229761071Y-45314819D02*
X229903928Y-45267200D01*
X229903928Y-45267200D02*
X229999166Y-45171961D01*
X229999166Y-45171961D02*
X230046785Y-45076723D01*
X230046785Y-45076723D02*
X230094404Y-44886247D01*
X230094404Y-44886247D02*
X230094404Y-44743390D01*
X230094404Y-44743390D02*
X230046785Y-44552914D01*
X230046785Y-44552914D02*
X229999166Y-44457676D01*
X229999166Y-44457676D02*
X229903928Y-44362438D01*
X229903928Y-44362438D02*
X229761071Y-44314819D01*
X229761071Y-44314819D02*
X229665833Y-44314819D01*
X229665833Y-44314819D02*
X229522976Y-44362438D01*
X229522976Y-44362438D02*
X229475357Y-44410057D01*
X228522976Y-45314819D02*
X229094404Y-45314819D01*
X228808690Y-45314819D02*
X228808690Y-44314819D01*
X228808690Y-44314819D02*
X228903928Y-44457676D01*
X228903928Y-44457676D02*
X228999166Y-44552914D01*
X228999166Y-44552914D02*
X229094404Y-44600533D01*
X227570595Y-45314819D02*
X228142023Y-45314819D01*
X227856309Y-45314819D02*
X227856309Y-44314819D01*
X227856309Y-44314819D02*
X227951547Y-44457676D01*
X227951547Y-44457676D02*
X228046785Y-44552914D01*
X228046785Y-44552914D02*
X228142023Y-44600533D01*
D11*
%TO.C,D1*%
X260620000Y-89990000D02*
X260620000Y-85980000D01*
X262620000Y-89990000D02*
X260620000Y-89990000D01*
X262620000Y-89990000D02*
X262620000Y-85980000D01*
%TO.C,C22*%
X261110000Y-77731233D02*
X261110000Y-78023767D01*
X262130000Y-77731233D02*
X262130000Y-78023767D01*
%TO.C,C19*%
X261110000Y-82696267D02*
X261110000Y-82403733D01*
X262130000Y-82696267D02*
X262130000Y-82403733D01*
%TO.C,R6*%
X232242379Y-50420000D02*
X232577621Y-50420000D01*
X232242379Y-51180000D02*
X232577621Y-51180000D01*
%TO.C,U10*%
X246860000Y-119995000D02*
X246860000Y-120090000D01*
X246860000Y-125020000D02*
X246860000Y-125115000D01*
X246860000Y-125115000D02*
X250980000Y-125115000D01*
X250980000Y-119995000D02*
X246860000Y-119995000D01*
X250980000Y-120090000D02*
X250980000Y-119995000D01*
X250980000Y-125115000D02*
X250980000Y-125020000D01*
X246560000Y-125355000D02*
X246080000Y-125355000D01*
X246320000Y-125025000D01*
X246560000Y-125355000D01*
G36*
X246560000Y-125355000D02*
G01*
X246080000Y-125355000D01*
X246320000Y-125025000D01*
X246560000Y-125355000D01*
G37*
%TO.C,U9*%
X231620000Y-119995000D02*
X231620000Y-120090000D01*
X231620000Y-125020000D02*
X231620000Y-125115000D01*
X231620000Y-125115000D02*
X235740000Y-125115000D01*
X235740000Y-119995000D02*
X231620000Y-119995000D01*
X235740000Y-120090000D02*
X235740000Y-119995000D01*
X235740000Y-125115000D02*
X235740000Y-125020000D01*
X236280000Y-120085000D02*
X236040000Y-119755000D01*
X236520000Y-119755000D01*
X236280000Y-120085000D01*
G36*
X236280000Y-120085000D02*
G01*
X236040000Y-119755000D01*
X236520000Y-119755000D01*
X236280000Y-120085000D01*
G37*
%TO.C,C21*%
X261110000Y-92563733D02*
X261110000Y-92856267D01*
X262130000Y-92563733D02*
X262130000Y-92856267D01*
%TO.C,C1*%
X248366233Y-42670000D02*
X248658767Y-42670000D01*
X248366233Y-43690000D02*
X248658767Y-43690000D01*
%TO.C,C2*%
X256686267Y-42670000D02*
X256393733Y-42670000D01*
X256686267Y-43690000D02*
X256393733Y-43690000D01*
%TO.C,C11*%
X228571248Y-42445000D02*
X229093752Y-42445000D01*
X228571248Y-43915000D02*
X229093752Y-43915000D01*
%TD*%
M02*
